# xmcd
#
# Track frame offsets:
#	150
#	12809
#	25529
#	34384
#	45901
#	60150
#	70416
#	86167
#	96801
#	106629
#	118226
#	130989
#	142917
#	158331
#	171271
#	185032
#	198186
#	209701
#	222002
#	233331
#
# Disc length: 3274 seconds
#
# Revision: 1
# Processed by: cddbd v1.5.2PL0 Copyright (c) Steve Scherf et al.
# Submitted via: audiograbber 1.83.01
#
DISCID=040cc814
DTITLE=Sonny Boy Williamson - The World of Blues
DYEAR=2004
DGENRE=Blues
TTITLE0=One Way Out
TTITLE1=Keep It To Yourself
TTITLE2=Checkin Up On MyBaby
TTITLE3=The Key
TTITLE4=Help Me
TTITLE5=Temperature 110
TTITLE6=You Killing Me
TTITLE7=Fattening Frogs For Snakes
TTITLE8=She's My Baby
TTITLE9=This Old Life
TTITLE10=All My Love Is Vain
TTITLE11=Bye Bye Bird
TTITLE12=Decorating Day
TTITLE13=Like Wolf
TTITLE14=Lonesome Cabin
TTITLE15=Open Road
TTITLE16=She Got Next To Me
TTITLE17=Sant Claus
TTITLE18=Your Funeral And My Trial
TTITLE19=Trust Me BAby
EXTD=
EXTT0=
EXTT1=
EXTT2=
EXTT3=
EXTT4=
EXTT5=
EXTT6=
EXTT7=
EXTT8=
EXTT9=
EXTT10=
EXTT11=
EXTT12=
EXTT13=
EXTT14=
EXTT15=
EXTT16=
EXTT17=
EXTT18=
EXTT19=
PLAYORDER=
